<?xml version="1.0" standalone="no"?>
<!DOCTYPE svg PUBLIC "-//W3C//DTD SVG 20010904//EN"
 "http://www.w3.org/TR/2001/REC-SVG-20010904/DTD/svg10.dtd">
<svg version="1.0" xmlns="http://www.w3.org/2000/svg"
 width="200.000000pt" height="200.000000pt" viewBox="0 0 200.000000 200.000000"
 preserveAspectRatio="xMidYMid meet">

<g transform="translate(0.000000,200.000000) scale(0.100000,-0.100000)"
fill="#000000" stroke="none">
<path d="M1068 1982 c-20 -23 -41 -63 -35 -68 2 -3 10 9 17 26 7 16 18 30 26
30 16 0 27 17 15 24 -4 3 -15 -2 -23 -12z"/>
<path d="M950 1985 c0 -3 8 -13 19 -24 11 -11 23 -46 30 -83 19 -109 12 -136
-20 -80 -9 16 -38 43 -65 61 l-48 33 -25 -28 -25 -29 28 -3 c15 -2 33 2 41 8
18 15 47 0 80 -44 24 -31 46 -106 32 -106 -4 0 -27 14 -52 32 -48 34 -76 32
-83 -7 -3 -13 1 -16 17 -11 12 3 30 9 41 12 13 3 28 -3 45 -20 34 -34 32 -43
-10 -38 -25 3 -36 0 -41 -12 -11 -29 0 -36 30 -21 48 25 56 15 55 -72 -1 -43
-4 -107 -8 -143 l-7 -65 -8 50 c-7 43 -20 74 -76 185 -8 16 -50 27 -50 13 0
-17 31 -53 46 -53 20 0 61 -93 70 -157 3 -29 4 -53 0 -53 -10 0 -47 80 -41 90
7 11 -22 40 -41 40 -22 0 -7 -39 27 -71 41 -38 37 -61 -11 -83 -36 -16 -41
-16 -64 -1 -28 19 -96 113 -96 134 0 11 -4 9 -16 -5 -15 -19 -16 -19 -9 1 4
11 8 28 9 37 1 10 5 21 9 24 4 4 7 16 7 27 0 31 42 97 62 97 26 0 22 29 -4 40
-18 7 -19 9 -5 9 23 1 22 13 -6 39 -41 39 -67 42 -120 15 -68 -34 -81 -68 -73
-193 10 -141 13 -150 67 -210 46 -50 49 -55 33 -67 -10 -7 -27 -13 -38 -12
-19 0 -19 1 2 10 32 12 23 34 -14 34 -20 0 -32 -7 -39 -22 -12 -28 -41 -30
-55 -3 -15 28 4 59 41 67 33 6 34 23 2 38 -12 5 -26 19 -32 32 -7 15 -19 23
-36 23 -22 0 -25 -4 -23 -31 4 -48 -17 -45 -36 5 -26 68 -105 97 -121 45 -4
-10 -2 -27 4 -36 9 -16 11 -14 17 15 8 39 33 43 67 10 l22 -23 -23 -3 c-12 -2
-28 -12 -34 -22 -10 -15 -15 -17 -27 -7 -12 10 -13 9 -2 -10 6 -13 16 -23 21
-23 15 0 12 -38 -4 -47 -8 -4 -16 -17 -18 -28 -4 -17 -7 -15 -18 13 -13 34
-28 40 -48 20 -14 -14 -16 -57 -3 -77 6 -10 5 -22 -2 -35 -7 -12 -12 -25 -12
-31 -1 -5 -18 -27 -38 -47 -36 -35 -37 -40 -35 -95 1 -32 -4 -68 -11 -81 -17
-32 -8 -37 31 -21 18 8 36 13 41 11 4 -1 7 5 7 13 0 19 -14 19 -30 0 -23 -27
-40 -18 -30 15 5 17 6 46 3 65 -6 38 13 77 47 95 20 11 20 10 -1 -30 -12 -23
-19 -43 -16 -47 3 -3 12 11 20 30 9 19 23 40 34 46 14 8 14 11 3 11 -13 0 -13
1 0 10 8 5 42 10 75 10 l60 1 -24 19 c-26 22 -56 25 -95 10 -14 -5 -26 -6 -26
-1 0 5 7 11 15 15 9 3 15 18 15 35 0 29 2 30 31 24 29 -6 31 -4 24 17 -6 19
-4 22 9 17 13 -5 16 1 18 31 0 20 1 45 0 55 -1 9 2 17 7 17 12 0 22 -32 26
-82 2 -22 8 -45 13 -50 12 -12 3 90 -10 115 -5 10 -5 17 1 17 5 0 14 -15 21
-32 l11 -33 30 35 c28 32 31 34 43 18 7 -10 22 -18 32 -18 13 -1 9 -5 -13 -15
-17 -7 -34 -23 -38 -34 -4 -12 -17 -33 -31 -46 -13 -13 -24 -31 -24 -40 0 -18
1 -18 -43 0 -41 17 -87 20 -87 5 0 -5 15 -10 34 -10 42 0 72 -25 81 -67 6 -32
5 -33 -25 -33 -40 0 -82 -22 -110 -57 -20 -26 -20 -27 -10 -3 7 14 24 35 38
48 l27 24 -31 -15 c-56 -28 -70 -107 -34 -192 11 -26 20 -59 19 -73 0 -27 0
-27 -9 -4 -8 20 -13 21 -31 12 -27 -15 -34 -7 -19 20 6 11 9 26 6 33 -3 8 -5
7 -5 -2 -1 -8 -11 -25 -23 -38 l-22 -24 22 -6 c26 -7 29 -29 4 -42 -23 -12
-52 4 -52 29 0 23 -8 25 -33 6 -9 -7 -28 -11 -41 -9 -30 6 -83 -26 -64 -38 8
-6 18 -2 26 8 10 14 12 14 12 2 0 -8 -7 -24 -15 -35 -15 -19 -15 -19 -31 1
-15 18 -16 18 -10 2 3 -10 6 -21 6 -23 0 -3 16 -2 35 2 19 3 35 2 35 -2 0 -5
4 -15 8 -22 11 -16 124 11 163 38 42 31 52 11 24 -48 -13 -29 -28 -51 -32 -50
-18 5 -73 -34 -78 -55 -4 -13 -5 -46 -2 -73 3 -49 3 -49 5 11 3 69 8 80 45 94
30 12 33 7 12 -29 -8 -14 -15 -43 -15 -65 -2 -77 -49 -159 -51 -88 l-1 28 -9
-29 c-9 -34 -8 -36 18 -40 10 -2 19 -12 21 -24 2 -12 15 -31 30 -43 49 -39
150 -9 139 41 -2 11 -14 14 -41 13 -27 -2 -43 3 -53 15 -13 15 -13 15 -8 -6 6
-19 4 -23 -12 -20 -15 3 -18 15 -21 81 -2 42 2 85 7 95 10 16 10 15 11 -3 0
-11 8 -31 16 -45 l15 -25 -6 30 c-17 81 -16 91 13 155 16 36 32 72 35 80 3 8
6 -18 6 -58 1 -40 6 -82 12 -94 16 -30 3 -33 -25 -5 -14 14 -27 22 -30 19 -15
-14 -4 -71 19 -102 23 -32 35 -90 17 -90 -4 0 -18 7 -30 16 -12 8 -22 11 -22
6 0 -13 56 -36 68 -28 14 8 -1 67 -27 109 -20 33 -28 67 -15 67 3 0 17 -9 31
-20 14 -11 31 -20 38 -20 6 0 17 -10 23 -22 6 -13 11 -17 11 -9 1 8 -11 32
-25 53 -30 43 -46 138 -24 138 8 0 10 8 6 25 -5 20 -3 23 10 18 14 -5 15 -3 5
15 -15 28 -14 35 9 62 l20 23 1 -44 c0 -24 4 -64 9 -89 8 -38 9 -34 5 29 -5
82 10 132 44 151 26 14 27 5 1 -27 -38 -48 -19 -143 29 -143 7 0 9 -5 6 -10
-3 -6 -16 -8 -28 -5 -21 6 -22 3 -21 -47 1 -29 -2 -62 -6 -73 -6 -17 -8 -16
-14 12 -8 33 -21 43 -28 21 -3 -7 -10 -8 -17 -4 -9 6 -11 20 -6 43 4 24 3 33
-4 28 -23 -13 -8 -105 16 -105 8 0 17 -9 20 -20 3 -11 9 -20 14 -20 5 0 16
-14 24 -31 17 -32 17 -95 0 -92 -5 0 -18 -3 -27 -8 -15 -8 -18 -5 -18 22 0 39
-5 36 -13 -9 -6 -31 -5 -33 21 -30 22 2 26 -1 24 -17 -2 -11 -10 -27 -18 -36
-20 -22 -18 -27 13 -32 27 -4 26 -4 -4 -6 -31 -1 -32 -3 -33 -43 0 -24 -1 -55
-2 -71 -2 -49 26 -67 103 -67 37 0 71 5 74 10 4 6 -5 24 -19 41 -31 37 -33 67
-6 119 28 56 24 64 -5 10 -13 -25 -24 -58 -25 -73 0 -25 -3 -27 -23 -22 -34
11 -42 22 -27 40 11 13 15 13 21 3 7 -10 9 -9 9 3 0 21 57 92 75 95 9 1 19
-13 26 -39 34 -127 135 -245 245 -286 31 -12 62 -20 68 -17 6 2 4 5 -4 5 -46
3 -215 111 -172 111 6 0 15 -6 19 -14 4 -8 26 -24 48 -36 22 -12 30 -14 17 -4
l-23 17 23 12 c24 12 58 9 58 -6 0 -5 22 -9 49 -9 28 0 52 -4 55 -9 9 -14 55
-10 50 4 -7 18 29 25 50 9 15 -11 23 -10 45 4 25 16 25 16 11 -2 -18 -23 -92
-56 -128 -57 -22 -1 -19 -3 12 -10 34 -8 48 -6 92 16 63 31 137 109 181 190
l31 59 11 -34 11 -35 -5 40 c-4 39 -4 39 10 15 8 -14 14 -34 15 -46 0 -28 46
-50 68 -32 13 11 14 10 3 -9 -14 -27 -21 -28 -47 -8 -27 20 -34 19 -34 -9 0
-14 -4 -27 -9 -30 -5 -4 -7 4 -5 16 2 13 1 16 -2 8 -4 -8 -13 -23 -21 -32 -13
-15 -12 -18 6 -27 11 -6 26 -11 33 -10 7 0 2 5 -11 10 l-25 10 28 14 c29 15
59 8 69 -17 4 -9 14 -4 31 15 32 35 34 79 4 107 -23 21 -51 29 -31 9 6 -6 9
-17 6 -25 -5 -13 -13 -5 -62 59 -12 15 -10 17 22 17 25 0 37 -5 40 -18 4 -16
5 -16 6 1 1 10 9 17 20 17 16 0 18 5 14 40 -5 36 -4 40 17 40 16 0 20 4 16 16
-15 40 -17 64 -6 104 9 33 14 40 21 29 7 -10 8 -6 3 12 -11 49 13 39 50 -20
20 -33 36 -63 36 -68 0 -4 -5 0 -11 10 -11 18 -39 24 -39 7 0 -5 -4 -10 -10
-10 -5 0 -10 6 -10 14 0 8 -4 17 -9 20 -4 3 -6 -6 -3 -19 4 -25 26 -33 37 -15
9 14 35 -7 35 -27 0 -11 -7 -13 -24 -9 -34 8 -45 -23 -16 -46 29 -23 45 -23
71 3 29 29 24 133 -8 166 -13 12 -24 32 -24 45 -1 16 -3 18 -6 6 -2 -9 4 -32
13 -50 19 -35 21 -40 29 -78 6 -28 -9 -59 -22 -46 -4 5 -2 11 5 13 19 7 15 20
-28 81 -22 31 -42 73 -46 92 -5 33 -5 34 10 16 13 -17 18 -18 29 -6 6 7 7 10
1 7 -7 -4 -22 28 -40 91 -24 83 -35 103 -71 140 -46 46 -59 81 -23 62 32 -17
100 -125 100 -159 0 -21 6 -32 20 -36 15 -5 20 -16 22 -48 l1 -42 4 37 c5 43
10 46 30 21 13 -16 13 -16 4 4 -16 32 -14 36 11 19 28 -20 87 -21 113 -2 11 7
30 16 43 20 30 10 31 -24 0 -43 l-22 -13 27 -15 c15 -7 27 -20 27 -28 0 -12
-4 -12 -27 1 -16 7 -48 13 -73 13 l-45 -2 52 -6 c28 -4 60 -14 70 -24 11 -9
23 -17 26 -17 16 0 5 46 -15 68 l-23 24 23 -7 c27 -8 72 17 72 40 0 29 -39 56
-78 55 -20 -1 -44 0 -52 1 -36 5 -50 -1 -47 -22 3 -32 -19 -34 -49 -4 -19 20
-23 29 -15 39 8 10 7 17 -4 26 -15 12 -22 60 -9 60 4 0 12 -7 18 -16 11 -14
15 -11 38 23 36 54 41 77 27 123 -16 52 -86 117 -137 126 -31 6 -33 8 -17 15
31 12 2 10 -34 -2 -17 -6 -36 -20 -42 -30 -16 -31 -88 -62 -146 -63 -28 0 -55
3 -58 6 -4 4 7 22 24 40 30 32 35 45 32 81 -2 18 14 23 24 7 10 -16 24 -2 19
18 -3 9 1 25 8 35 13 18 15 17 40 -3 16 -12 30 -35 34 -56 5 -26 9 -32 19 -24
7 6 19 8 27 5 8 -3 21 1 28 10 8 10 9 15 1 15 -6 0 -11 9 -11 19 0 11 -4 22
-8 25 -13 8 2 99 17 104 11 4 13 -3 8 -32 -4 -27 -2 -36 9 -36 8 0 14 -9 14
-20 0 -22 20 -26 38 -8 16 16 34 -8 26 -35 -4 -11 1 -24 13 -32 17 -13 15 -14
-17 -16 l-35 -1 30 -9 c37 -11 51 2 35 31 -6 12 -9 24 -6 27 3 4 -4 21 -15 39
-11 19 -17 39 -13 45 4 8 3 9 -4 5 -7 -4 -12 -15 -12 -26 0 -10 -7 -20 -14
-23 -10 -4 -13 -1 -9 8 3 8 -2 18 -11 21 -17 7 -23 64 -7 64 5 0 17 14 25 31
19 39 7 59 -34 59 -33 0 -58 -25 -66 -69 -8 -38 -30 -36 -26 2 6 48 -72 50
-84 3 -3 -14 -12 -27 -20 -30 -8 -3 -14 -12 -14 -21 0 -11 6 -14 25 -9 21 5
25 3 25 -16 0 -12 -4 -18 -11 -15 -5 4 -21 4 -34 1 -21 -5 -24 -11 -19 -35 4
-20 1 -30 -10 -34 -9 -4 -13 -13 -10 -20 9 -25 -41 -29 -93 -8 -27 10 -60 21
-73 23 l-25 4 28 12 c24 10 35 9 63 -4 29 -14 37 -14 51 -3 14 12 16 12 9 0
-6 -9 -4 -12 5 -9 18 6 24 45 9 63 -10 11 -4 24 25 60 57 69 74 193 40 293
-20 58 -29 68 -78 94 -32 16 -45 18 -64 9 -13 -6 -21 -16 -18 -21 3 -6 -1 -7
-9 -4 -9 3 -16 1 -16 -5 0 -21 -3 -26 -21 -39 -20 -14 -26 -42 -9 -42 6 0 10
6 10 14 0 8 5 18 11 21 6 4 9 0 7 -11 -2 -12 4 -19 17 -22 15 -2 17 -1 6 6
-11 8 -9 15 9 40 30 40 64 56 81 36 7 -8 8 -14 3 -12 -5 1 -24 -6 -42 -17 -34
-20 -36 -34 -14 -88 21 -50 2 -153 -34 -192 -13 -14 -24 -29 -24 -33 0 -11
-60 -82 -70 -82 -4 0 -26 12 -49 27 l-40 26 21 29 c11 16 31 33 44 38 12 5 28
18 34 30 9 17 8 20 -7 20 -25 0 -39 -11 -47 -35 -3 -11 -14 -25 -25 -32 -17
-10 -18 -9 -14 10 13 58 46 147 54 147 16 0 61 49 54 59 -3 5 -17 6 -31 2 -22
-6 -30 -19 -54 -95 -16 -48 -31 -90 -34 -94 -3 -3 -6 54 -6 126 0 120 9 165
23 112 3 -13 14 -20 30 -20 20 0 23 4 19 25 -3 20 -10 25 -33 25 -36 0 -36 10
-4 40 24 22 25 23 45 5 24 -22 50 -14 43 14 -7 29 -42 27 -88 -4 -20 -15 -40
-24 -43 -21 -6 7 16 60 45 105 l24 36 -34 -38 -33 -39 3 64 c2 38 0 56 -5 44
-6 -14 -11 -6 -20 35 -12 53 -27 79 -43 79 -5 0 -9 -2 -9 -5z m-84 -142 c-10
-10 -19 5 -10 18 6 11 8 11 12 0 2 -7 1 -15 -2 -18z m-143 -157 c25 -32 46
-86 33 -86 -3 0 -24 8 -46 18 -30 12 -40 22 -36 35 2 9 0 17 -5 17 -10 0 -12
33 -2 43 14 14 32 6 56 -27z m367 -46 c0 -5 -2 -10 -4 -10 -3 0 -8 5 -11 10
-3 6 -1 10 4 10 6 0 11 -4 11 -10z m213 -10 c-3 -11 -7 -20 -9 -20 -2 0 -4 9
-4 20 0 11 4 20 9 20 5 0 7 -9 4 -20z m-663 -20 c0 -5 -2 -10 -4 -10 -3 0 -8
5 -11 10 -3 6 -1 10 4 10 6 0 11 -4 11 -10z m694 -15 c-4 -8 -10 -15 -15 -15
-5 0 -9 -10 -10 -22 0 -13 -3 -17 -6 -10 -3 8 0 25 8 38 14 26 32 33 23 9z
m-449 -14 c3 -5 1 -12 -5 -16 -5 -3 -10 1 -10 9 0 18 6 21 15 7z m455 -78 c0
-34 -1 -35 -14 -18 -10 14 -11 25 -5 37 14 27 19 22 19 -19z m-684 0 c-10 -10
-19 5 -10 18 6 11 8 11 12 0 2 -7 1 -15 -2 -18z m54 -13 c0 -5 -5 -10 -11 -10
-5 0 -7 5 -4 10 3 6 8 10 11 10 2 0 4 -4 4 -10z m-30 -57 c11 -10 20 -23 20
-30 0 -7 5 -13 10 -13 6 0 10 -4 10 -10 0 -18 -18 -11 -25 10 -4 12 -15 20
-27 20 -12 0 -18 3 -15 7 4 3 2 12 -4 20 -17 20 6 17 31 -4z m934 -22 c4 -5 2
-21 -4 -35 -7 -20 -16 -26 -40 -26 -32 0 -41 17 -14 27 13 5 13 7 2 14 -11 7
-10 11 2 19 19 12 47 13 54 1z m-134 -31 c0 -5 -4 -10 -9 -10 -6 0 -13 5 -16
10 -3 6 1 10 9 10 9 0 16 -4 16 -10z m-770 -41 c0 -6 -4 -7 -10 -4 -5 3 -10
11 -10 16 0 6 5 7 10 4 6 -3 10 -11 10 -16z m779 -14 c13 -19 27 -32 32 -29 5
3 9 -3 9 -13 0 -15 -8 -18 -43 -18 -36 0 -42 3 -45 23 -2 13 -10 26 -17 29
-11 4 -12 9 -2 24 18 28 39 23 66 -16z m-178 -7 c-11 -28 -41 -57 -37 -36 2
14 39 68 44 63 1 -1 -2 -13 -7 -27z m-291 -19 c0 -5 -4 -9 -10 -9 -5 0 -10 7
-10 16 0 8 5 12 10 9 6 -3 10 -10 10 -16z m-60 -17 c0 -15 -2 -15 -10 -2 -13
20 -13 33 0 25 6 -3 10 -14 10 -23z m30 -2 c0 -30 16 -32 35 -4 13 20 19 23
25 14 5 -7 6 -20 3 -28 -5 -12 -2 -12 18 -2 21 12 22 11 12 -1 -10 -12 -8 -15
10 -14 12 0 22 -4 22 -10 0 -5 -4 -8 -10 -6 -8 3 -42 5 -173 10 -7 1 -10 6 -6
13 4 6 -1 17 -11 25 -17 12 -17 13 -2 13 10 0 22 -12 28 -27 7 -16 13 -23 16
-15 3 6 9 9 15 6 7 -5 9 4 6 24 -2 17 -1 29 4 26 4 -3 8 -14 8 -24z m-669 -23
c-17 -17 -24 -1 -10 25 12 21 14 21 17 4 2 -10 -1 -23 -7 -29z m586 7 c-3 -3
-12 -4 -19 -1 -8 3 -5 6 6 6 11 1 17 -2 13 -5z m499 -16 c-3 -13 -6 -27 -6
-33 0 -5 -5 -3 -10 5 -15 23 -12 50 6 50 12 0 15 -6 10 -22z m-626 -3 c0 -2
-9 -3 -19 -2 -11 0 -18 5 -15 9 4 6 34 0 34 -7z m530 0 c0 -9 -9 -15 -22 -14
-13 0 -17 3 -10 6 6 2 10 9 6 14 -3 5 2 9 10 9 9 0 16 -7 16 -15z m-773 -15
c6 -22 18 -26 28 -10 3 6 13 10 21 10 10 0 14 -12 14 -45 0 -41 3 -48 40 -73
38 -26 52 -52 29 -52 -22 0 -78 41 -114 83 -20 23 -32 32 -26 21 6 -12 38 -47
73 -78 39 -36 55 -56 44 -56 -28 0 -150 69 -163 93 -16 29 -16 58 0 55 6 -2
12 6 13 17 2 48 5 55 20 55 9 0 18 -9 21 -20z m353 12 c0 -4 -9 -8 -20 -9 -11
-1 -18 2 -15 8 7 11 35 12 35 1z m-81 -21 c17 -11 -95 -31 -139 -25 -23 4 -30
2 -25 -6 5 -9 31 -10 93 -5 l85 7 -7 -32 c-3 -18 -6 -43 -6 -56 0 -21 -5 -24
-38 -24 -30 0 -43 7 -65 31 -23 27 -29 29 -43 18 -14 -11 -19 -10 -36 11 -12
14 -17 32 -14 44 3 12 6 26 6 31 0 13 170 19 189 6z m447 -81 c3 0 1 6 -6 14
-10 13 -7 13 19 3 17 -6 26 -14 20 -18 -7 -4 -5 -9 5 -12 9 -4 16 -2 16 4 0 6
4 8 9 4 5 -3 17 2 25 11 18 18 21 11 6 -17 -17 -30 -73 -25 -136 14 -64 39
-72 57 -10 22 25 -14 48 -25 52 -25z m-857 21 c9 -6 2 -9 -24 -9 -26 0 -33 3
-24 9 8 5 19 9 24 9 6 0 16 -4 24 -9z m581 -29 c0 -9 -5 -24 -10 -32 -7 -11
-10 -5 -10 23 0 23 4 36 10 32 6 -3 10 -14 10 -23z m-53 -14 c-3 -7 -5 -2 -5
12 0 14 2 19 5 13 2 -7 2 -19 0 -25z m643 18 c0 -2 -7 -7 -16 -10 -8 -3 -12
-2 -9 4 6 10 25 14 25 6z m115 -57 c58 -54 74 -102 50 -152 -23 -48 -45 -67
-45 -38 0 11 -4 21 -10 21 -6 0 -6 9 0 26 15 38 12 87 -6 112 -25 36 -59 44
-121 31 -30 -6 -57 -8 -60 -6 -10 11 73 46 110 47 30 0 46 -8 82 -41z m-1187
5 c12 -4 22 -11 22 -17 0 -6 -3 -8 -6 -4 -10 10 -54 -49 -54 -72 0 -14 -6 -21
-20 -21 -11 0 -20 4 -20 9 0 26 22 62 47 75 l28 15 -30 1 c-39 0 -70 -22 -83
-57 -11 -32 0 -71 23 -79 19 -8 10 -24 -14 -24 -20 0 -58 37 -61 60 -6 39 2
64 29 91 24 23 38 29 73 29 24 0 53 -3 66 -6z m728 -21 c-10 -10 -19 5 -10 18
6 11 8 11 12 0 2 -7 1 -15 -2 -18z m-30 -11 c37 -32 58 -80 27 -64 -40 23 -86
69 -79 80 10 17 17 15 52 -16z m66 12 c-10 -18 -5 -51 11 -71 6 -9 6 -13 -2
-13 -21 0 -35 47 -23 75 6 14 14 25 17 25 3 0 2 -7 -3 -16z m-545 -26 c-3 -8
-6 -5 -6 6 -1 11 2 17 5 13 3 -3 4 -12 1 -19z m66 15 c-7 -2 -21 -2 -30 0 -10
3 -4 5 12 5 17 0 24 -2 18 -5z m240 -8 c26 -4 47 -10 47 -14 0 -3 -5 -23 -11
-44 -9 -35 -13 -38 -41 -35 -17 2 -34 9 -36 17 -3 8 0 11 5 8 5 -3 15 -2 23 4
12 7 10 9 -7 9 -12 0 -24 6 -26 13 -3 6 -6 3 -6 -8 -3 -54 -45 -55 -54 -2 -3
18 -8 39 -12 48 -7 18 21 19 118 4z m293 -32 c-4 -8 3 -13 17 -13 20 -1 20 -2
4 -11 -21 -13 -51 6 -43 27 3 7 1 16 -4 19 -6 4 -10 11 -10 17 0 6 9 3 20 -7
12 -10 18 -25 16 -32z m274 17 c36 -24 41 -91 8 -114 -12 -9 -31 -16 -42 -16
-17 0 -16 3 8 25 34 31 34 69 1 91 -25 16 -58 16 -168 -2 -25 -4 -43 -2 -54 7
-14 12 -4 15 73 25 103 12 139 9 174 -16z m68 5 c-3 -3 -9 2 -12 12 -6 14 -5
15 5 6 7 -7 10 -15 7 -18z m-775 -3 c9 -10 18 -29 19 -42 3 -21 -1 -24 -39
-25 -23 0 -56 6 -74 16 l-32 16 49 26 c60 31 57 31 77 9z m317 -53 c0 -4 -17
-9 -37 -12 -21 -4 -50 -9 -65 -13 -24 -5 -28 -3 -28 14 0 31 21 71 39 74 15 4
90 -49 91 -63z m436 46 c12 -19 15 -38 11 -74 -5 -46 -44 -141 -57 -141 -4 0
-19 17 -34 38 l-26 37 36 6 c45 8 63 26 71 73 5 30 1 41 -17 61 -13 14 -18 25
-12 25 6 0 19 -11 28 -25z m-1221 -30 c0 -45 -17 -58 -23 -17 -3 17 13 62 21
62 1 0 2 -20 2 -45z m138 4 c-14 -14 -26 -16 -53 -11 l-34 8 21 21 c19 19 26
21 54 11 30 -10 30 -11 12 -29z m242 31 c-28 -12 -55 -12 -55 0 0 6 17 10 38
9 30 0 33 -2 17 -9z m735 -25 c18 -22 2 -38 -33 -31 -36 7 -62 27 -48 35 21
13 69 11 81 -4z m50 -36 c0 -22 -42 -52 -66 -47 -28 5 -27 25 0 32 16 4 28 16
32 31 5 20 9 23 20 14 8 -6 14 -20 14 -30z m-860 26 c0 -7 -81 -47 -86 -43 -2
3 15 14 39 26 46 24 47 24 47 17z m-221 -41 c-12 -14 -39 -19 -39 -8 0 11 34
33 43 27 4 -3 3 -11 -4 -19z m76 -4 c10 -11 13 -20 7 -20 -20 0 -13 -20 11
-30 22 -9 22 -9 -3 -9 -33 -1 -50 16 -50 51 0 33 10 35 35 8z m154 2 c-13 -10
-33 -22 -44 -25 -15 -6 -14 -1 8 18 15 14 35 25 44 25 11 0 9 -5 -8 -18z m628
2 c2 -7 -6 -10 -21 -7 -14 3 -23 10 -20 15 8 12 36 6 41 -8z m-117 -8 c0 -9
-8 -12 -25 -8 -14 2 -25 8 -25 13 0 5 11 9 25 9 14 0 25 -6 25 -14z m170 4 c0
-5 -2 -10 -4 -10 -3 0 -8 5 -11 10 -3 6 -1 10 4 10 6 0 11 -4 11 -10z m-125
-10 c3 -5 1 -10 -4 -10 -6 0 -11 5 -11 10 0 6 2 10 4 10 3 0 8 -4 11 -10z
m-498 -8 c8 -5 1 -16 -23 -35 -19 -16 -31 -33 -28 -39 4 -6 3 -8 -3 -5 -11 7
-46 -30 -39 -42 3 -4 -1 -17 -9 -27 -13 -16 -14 -17 -9 -1 5 14 0 17 -29 17
-41 0 -67 21 -67 56 0 16 6 24 18 24 10 0 26 6 37 13 11 7 40 19 65 26 25 8
50 15 55 16 16 5 19 5 32 -3z m228 -6 c28 0 61 3 73 8 22 7 23 6 17 -16 -9
-29 -34 -58 -51 -58 -7 0 -18 -8 -23 -19 -16 -30 -59 -33 -77 -5 -9 12 -25 24
-37 26 -18 2 -23 11 -25 41 l-3 38 38 -7 c21 -4 61 -8 88 -8z m435 4 c0 -16
-40 -52 -52 -47 -22 7 -18 22 9 39 32 20 43 22 43 8z m-1023 -38 c-15 -15 -27
-21 -27 -13 0 14 42 52 49 45 3 -3 -7 -17 -22 -32z m78 28 c-3 -5 -11 -10 -16
-10 -6 0 -7 5 -4 10 3 6 11 10 16 10 6 0 7 -4 4 -10z m848 3 c-7 -2 -19 -2
-25 0 -7 3 -2 5 12 5 14 0 19 -2 13 -5z m-988 -19 c28 -18 32 -50 11 -80 -14
-18 -15 -18 -20 11 -4 17 -11 42 -15 58 -11 32 -9 32 24 11z m489 -19 c5 -26
15 -39 34 -48 15 -6 33 -20 40 -29 7 -10 20 -18 28 -18 20 0 18 -17 -3 -24
-31 -11 -88 -69 -103 -105 -13 -32 -12 -35 9 -52 13 -11 29 -19 37 -19 16 0
33 30 26 48 -3 11 0 12 16 3 12 -6 24 -16 28 -22 9 -16 -32 -46 -81 -61 -48
-14 -79 -40 -95 -79 -7 -16 -15 -29 -17 -29 -3 0 -18 11 -35 25 -27 23 -31 24
-51 10 -30 -21 -47 -19 -47 5 0 12 -11 32 -24 45 -14 14 -20 27 -15 30 5 4 9
0 9 -7 1 -22 30 24 30 47 0 44 30 135 60 178 29 43 126 137 141 137 4 0 10
-16 13 -35z m317 22 c31 -25 103 -124 125 -173 31 -71 56 -195 49 -252 -3 -26
-8 -68 -11 -94 -3 -27 -8 -48 -10 -48 -3 0 -14 8 -25 19 -20 18 -69 45 -101
55 -14 4 -18 16 -18 50 0 25 -5 57 -11 73 -8 23 -7 30 7 40 25 18 74 17 74 -2
0 -13 -4 -14 -22 -4 -18 9 -24 8 -34 -6 -28 -38 27 -71 75 -44 42 24 48 59 19
116 -36 72 -62 106 -118 153 -36 30 -54 39 -63 32 -6 -5 -25 -12 -40 -14 -27
-5 -27 -5 -11 13 9 11 23 19 30 19 8 0 23 18 34 40 22 43 27 46 51 27z m91 -6
c13 -11 49 -25 79 -33 50 -12 54 -15 52 -42 -4 -60 -59 -77 -90 -28 -9 15 -35
48 -56 75 -40 49 -32 65 15 28z m63 -2 c4 -6 5 -12 2 -15 -7 -7 -37 7 -37 17
0 13 27 11 35 -2z m139 -62 c10 -18 16 -42 15 -54 -3 -16 -9 -7 -25 33 -24 60
-17 73 10 21z m190 -6 c5 -27 3 -32 -9 -27 -23 8 -19 1 26 -44 46 -46 82 -51
87 -12 3 17 9 22 24 20 34 -5 32 -25 -3 -43 -39 -21 -92 -13 -112 16 -13 18
-15 18 -21 3 -5 -13 -10 -14 -18 -6 -6 6 -17 8 -24 5 -10 -4 -14 3 -14 21 0
29 16 35 23 9 3 -10 5 -1 6 20 1 34 18 84 25 75 2 -1 6 -18 10 -37z m-224 -5
c0 -52 -74 -119 -87 -78 -3 7 4 12 15 12 26 0 42 21 49 64 6 38 23 40 23 2z
m-809 -36 c10 0 19 -5 19 -11 0 -6 -7 -9 -15 -6 -17 7 -30 -9 -15 -18 5 -3 10
-16 10 -28 0 -18 -5 -22 -27 -21 -20 1 -27 6 -25 18 2 9 -3 16 -11 16 -7 0
-20 12 -27 26 -12 22 -12 27 0 34 11 7 18 1 27 -22 7 -17 16 -28 19 -25 3 3 1
14 -5 25 -6 12 -11 31 -11 43 0 21 1 21 21 -5 11 -14 29 -26 40 -26z m-301 21
c0 -20 -53 -71 -73 -71 -7 1 -29 7 -49 14 -36 13 -56 5 -21 -8 12 -5 13 -10 6
-17 -8 -8 -19 -6 -37 7 -29 22 -34 52 -8 60 9 3 25 10 34 15 24 12 28 11 28
-6 0 -9 12 -21 27 -28 24 -11 28 -9 52 21 30 37 41 40 41 13z m183 -19 c4 -21
3 -31 -3 -27 -6 3 -10 20 -10 37 0 38 5 34 13 -10z m634 1 c2 -5 -5 -21 -16
-34 l-20 -24 -1 31 c0 17 3 34 7 38 9 8 26 3 30 -11z m-53 -19 c3 -9 6 -25 6
-37 -1 -17 -4 -15 -15 12 -18 39 -18 41 -6 41 5 0 12 -7 15 -16z m436 11 c0
-23 -25 -115 -36 -133 -20 -30 -37 -19 -22 14 9 20 9 27 0 33 -9 5 -5 14 13
31 14 13 25 32 25 42 0 10 5 18 10 18 6 0 10 -2 10 -5z m-473 -17 c14 -19 24
-48 15 -48 -4 0 -15 14 -24 30 -17 29 -10 42 9 18z m113 -13 c-12 -14 -10 -16
16 -10 28 6 28 5 -6 -13 -52 -28 -69 -11 -29 29 23 23 39 18 19 -6z m285 -32
c-11 -17 -14 -28 -7 -35 6 -6 8 -26 5 -44 -4 -22 -2 -34 6 -34 6 0 11 -9 11
-20 0 -25 -22 -26 -44 -1 -10 11 -24 17 -32 14 -10 -4 -14 3 -14 21 0 24 2 25
20 16 18 -10 20 -8 20 19 0 36 43 132 48 107 2 -9 -4 -28 -13 -43z m422 32 c9
-24 -1 -27 -15 -5 -8 13 -8 20 -2 20 6 0 13 -7 17 -15z m-1217 -4 c0 -6 -4
-13 -10 -16 -5 -3 -10 1 -10 9 0 9 5 16 10 16 6 0 10 -4 10 -9z m374 -7 c5
-14 4 -15 -9 -4 -17 14 -19 20 -6 20 5 0 12 -7 15 -16z m387 -24 c-22 -50 -23
-51 -39 -34 -10 12 -10 14 2 14 9 0 22 14 31 30 23 44 27 37 6 -10z m-409 13
c10 -9 18 -23 18 -32 0 -13 -4 -12 -18 5 -9 12 -26 26 -37 32 -19 11 -19 11
-1 12 11 0 28 -7 38 -17z m891 -28 c-10 -7 -20 -11 -23 -8 -3 3 1 8 8 10 6 3
12 14 12 26 1 20 1 21 11 4 9 -15 7 -21 -8 -32z m-928 15 c8 -13 -15 -13 -35
0 -12 8 -11 10 7 10 12 0 25 -4 28 -10z m230 0 c-3 -5 -14 -10 -23 -9 -14 0
-13 2 3 9 27 11 27 11 20 0z m-209 -42 c22 -19 22 -19 47 6 28 28 77 35 95 14
5 -7 12 -48 14 -90 3 -60 0 -78 -10 -78 -7 0 -20 16 -28 35 -9 22 -21 35 -32
34 -10 0 -12 -3 -4 -6 22 -9 42 -61 42 -111 0 -58 -12 -72 -55 -65 -18 3 -35
0 -39 -5 -4 -7 12 -13 41 -18 29 -4 55 -15 66 -27 20 -24 20 -19 7 -52 -8 -22
-15 -26 -33 -21 -13 3 -36 1 -52 -3 -22 -7 -25 -10 -10 -11 19 -1 19 -2 -1
-10 -14 -5 -38 -4 -65 5 -24 8 -39 14 -33 14 5 1 19 8 30 16 17 14 16 14 -13
0 -33 -15 -94 -21 -92 -7 3 18 -2 26 -9 15 -6 -10 -13 -9 -30 3 -20 14 -21 17
-7 37 20 29 19 39 -6 66 -21 22 -21 24 -4 61 10 21 25 42 33 45 12 4 11 1 -4
-16 -19 -22 -19 -22 1 -11 11 5 29 20 39 31 14 15 23 18 31 11 9 -8 17 -3 29
16 10 15 23 23 31 20 8 -3 17 -1 20 4 3 5 20 14 38 20 l32 10 -36 -5 c-31 -5
-37 -2 -47 20 -16 35 -15 37 8 25 28 -15 26 5 -2 24 -12 9 -38 16 -58 17 -31
1 -32 2 -10 8 30 9 48 4 76 -21z m554 12 c0 -25 -21 -70 -32 -70 -5 0 -13 -10
-18 -22 -5 -14 -9 -17 -9 -8 -1 9 8 33 19 55 11 22 20 45 20 52 0 7 5 13 10
13 6 0 10 -9 10 -20z m-976 -12 c5 -22 6 -22 19 -4 11 14 15 15 24 4 12 -16
23 -69 13 -63 -5 3 -17 -10 -28 -29 -15 -25 -17 -37 -9 -45 8 -8 4 -11 -15
-11 -26 0 -26 0 -14 -42 16 -59 10 -101 -13 -93 -12 4 -20 0 -24 -12 -2 -10
-8 -27 -13 -38 -7 -18 -6 -18 9 -6 13 10 17 10 17 1 0 -30 29 14 40 61 7 28
15 48 18 45 14 -14 -25 -101 -65 -147 -49 -54 -58 -58 -66 -30 -3 14 1 21 17
25 27 7 67 37 46 35 -8 -1 -25 -1 -38 0 l-22 1 26 52 c26 51 29 102 9 151 -6
14 -2 17 21 18 28 1 28 1 5 8 -36 10 -39 31 -4 31 16 0 38 7 49 15 12 8 24 11
28 8 3 -3 6 -2 6 4 0 21 -14 22 -38 3 -13 -11 -33 -20 -43 -20 -16 0 -19 8
-19 50 0 48 1 50 29 50 21 0 30 -6 35 -22z m680 13 c6 -9 -84 -22 -94 -14 -2
2 2 8 10 13 19 12 77 13 84 1z m-353 -38 c-7 -12 -5 -21 7 -30 15 -12 14 -13
-8 -11 -28 3 -40 35 -18 49 21 14 30 10 19 -8z m353 8 c6 -9 -85 -23 -94 -15
-2 3 2 9 10 14 19 12 77 13 84 1z m-24 -28 c-19 -3 -39 -9 -44 -14 -6 -5 -15
-9 -20 -9 -6 0 -2 7 8 15 11 8 36 14 55 13 l36 -1 -35 -4z m-19 -33 c-50 -23
-55 -24 -46 -9 9 13 44 28 70 28 11 0 1 -8 -24 -19z m89 -23 c0 -34 -33 -61
-65 -53 -14 4 -25 13 -25 22 0 12 7 14 30 9 26 -6 30 -3 36 19 8 32 24 34 24
3z m240 4 c0 -6 -4 -13 -10 -16 -5 -3 -10 1 -10 9 0 9 5 16 10 16 6 0 10 -4
10 -9z m-72 -21 c43 -10 48 -16 32 -35 -7 -8 -10 -15 -7 -15 3 0 -10 -30 -29
-66 -19 -36 -34 -75 -33 -87 0 -24 -2 -28 37 66 8 20 18 37 23 37 4 0 7 -34 7
-75 -1 -70 -8 -90 -24 -64 -4 8 -9 8 -17 0 -14 -14 -44 -14 -52 -1 -12 20 -15
170 -3 170 6 0 8 -9 5 -21 -5 -17 -3 -18 9 -8 13 10 12 14 -2 30 -12 14 -14
22 -6 32 7 8 7 18 2 27 -15 23 -12 33 8 25 9 -4 32 -11 50 -15z m-298 -50 c0
-5 -9 -10 -20 -10 -11 0 -20 5 -20 10 0 6 9 10 20 10 11 0 20 -4 20 -10z
m-570 -4 c0 -2 3 -12 6 -20 4 -12 2 -15 -9 -10 -21 8 -30 34 -12 34 8 0 15 -2
15 -4z m574 -25 c3 -4 3 -11 0 -14 -8 -7 -44 4 -44 14 0 12 37 12 44 0z m-428
-36 c3 -14 11 -25 16 -25 6 0 8 -6 5 -14 -3 -8 1 -20 9 -27 19 -15 31 -4 15
15 -9 10 -9 16 -1 21 6 4 12 5 13 4 2 -2 8 -11 15 -20 14 -19 6 -49 -13 -49
-7 0 -31 17 -53 38 -22 20 -48 42 -58 49 -17 10 -17 13 -4 22 26 18 49 12 56
-14z m424 5 c8 -5 12 -12 8 -15 -10 -10 -49 5 -43 16 8 11 16 11 35 -1z m359
-52 c1 -5 -6 -8 -15 -8 -11 0 -14 5 -10 16 3 9 6 21 7 27 0 12 17 -20 18 -35z
m-764 -38 c44 -38 86 -70 93 -70 17 0 15 -17 -3 -24 -24 -9 -19 -39 5 -31 38
12 15 -53 -30 -85 -27 -20 -33 -20 -48 -8 -31 27 -48 33 -28 10 11 -12 14 -22
9 -22 -6 0 -18 12 -28 26 -9 15 -12 23 -5 19 8 -5 11 -3 8 6 -3 8 -10 14 -16
14 -5 0 -14 4 -19 9 -5 5 -2 6 6 1 9 -5 12 -3 9 6 -3 8 -10 13 -16 12 -7 -2
-9 4 -5 14 4 9 2 14 -3 11 -5 -4 -10 4 -11 15 -1 12 -8 51 -17 86 -24 105 -10
106 99 11z m395 60 c9 -6 10 -10 3 -10 -6 0 -18 -3 -27 -6 -11 -4 -16 -1 -16
10 0 18 17 21 40 6z m35 -19 c-14 -12 -73 -25 -60 -13 6 6 19 12 30 15 34 8
40 8 30 -2z m419 -6 c3 -8 1 -15 -3 -15 -5 0 -11 7 -15 15 -3 8 -1 15 3 15 5
0 11 -7 15 -15z m-1240 -20 c-8 -19 -48 -30 -71 -20 -14 6 -7 10 27 20 25 7
46 13 47 14 1 0 0 -6 -3 -14z m827 0 c-39 -17 -51 -19 -51 -6 0 10 27 17 65
19 13 1 8 -4 -14 -13z m-791 -4 c0 -11 -19 -25 -38 -27 -10 -2 -8 3 4 17 18
20 34 25 34 10z m844 -3 c-5 -8 -2 -9 12 -4 10 4 15 3 10 -1 -4 -4 -29 -8 -54
-9 l-47 -1 35 13 c45 16 53 17 44 2z m51 -29 c-4 -5 -1 -9 4 -9 17 0 12 -51
-9 -97 -20 -45 -29 -50 -61 -32 -14 7 -29 7 -54 -2 -31 -12 -36 -11 -50 7 -21
28 -18 52 11 80 17 18 32 24 47 21 12 -3 40 1 62 8 l40 12 -55 -2 c-30 -1 -42
-1 -26 2 16 2 25 8 19 11 -6 4 9 8 33 9 25 1 42 -3 39 -8z m-388 -75 c-3 -3
-12 -4 -19 -1 -8 3 -5 6 6 6 11 1 17 -2 13 -5z m528 -35 c11 -17 -1 -21 -15
-4 -8 9 -8 15 -2 15 6 0 14 -5 17 -11z m-425 -21 c0 -29 -59 -15 -60 14 0 4
13 6 30 5 21 -1 30 -7 30 -19z m-495 0 c42 -19 34 -32 -30 -41 -27 -5 -33 -4
-20 2 19 9 19 9 -5 19 -14 6 -19 11 -12 11 7 1 10 6 7 11 -8 14 28 13 60 -2z
m560 -28 c30 -24 34 -30 18 -30 -19 0 -40 18 -57 48 -11 19 -2 15 39 -18z
m-485 -32 c0 -10 -54 -11 -63 -1 -4 3 1 14 11 23 15 16 19 16 35 2 9 -8 17
-19 17 -24z m325 22 c-10 -11 -21 -17 -24 -14 -3 3 3 12 13 20 28 20 32 17 11
-6z m537 -7 c18 -5 33 -33 18 -33 -6 0 -10 4 -10 9 0 5 -13 11 -30 15 -16 3
-30 11 -30 17 0 7 7 8 18 4 9 -4 25 -9 34 -12z m-460 -9 c15 14 17 13 31 -8
19 -29 25 -55 12 -54 -23 2 -85 49 -85 65 0 15 1 15 13 -1 12 -17 15 -17 29
-2z"/>
<path d="M1030 1269 c0 -5 5 -7 10 -4 6 3 10 8 10 11 0 2 -4 4 -10 4 -5 0 -10
-5 -10 -11z"/>
<path d="M718 1153 c6 -2 18 -2 25 0 6 3 1 5 -13 5 -14 0 -19 -2 -12 -5z"/>
<path d="M1711 1000 c-1 -8 -4 -26 -7 -40 -5 -22 -4 -23 6 -7 6 10 9 28 7 40
-2 12 -5 15 -6 7z"/>
<path d="M960 850 c0 -5 5 -10 11 -10 5 0 7 5 4 10 -3 6 -8 10 -11 10 -2 0 -4
-4 -4 -10z"/>
<path d="M1130 729 c0 -5 5 -7 10 -4 6 3 10 8 10 11 0 2 -4 4 -10 4 -5 0 -10
-5 -10 -11z"/>
<path d="M1058 673 c7 -3 16 -2 19 1 4 3 -2 6 -13 5 -11 0 -14 -3 -6 -6z"/>
<path d="M1000 572 c0 -7 -6 -12 -14 -12 -14 0 -42 -27 -35 -34 2 -2 17 6 34
19 16 13 26 27 22 31 -4 4 -7 2 -7 -4z"/>
<path d="M940 430 c0 -5 7 -7 15 -4 8 4 15 8 15 10 0 2 -7 4 -15 4 -8 0 -15
-4 -15 -10z"/>
<path d="M961 399 c8 -8 21 -23 28 -34 11 -19 12 -19 9 -1 -2 10 -14 25 -28
33 -17 10 -20 11 -9 2z"/>
<path d="M908 373 c6 -2 18 -2 25 0 6 3 1 5 -13 5 -14 0 -19 -2 -12 -5z"/>
<path d="M1048 373 c6 -2 18 -2 25 0 6 3 1 5 -13 5 -14 0 -19 -2 -12 -5z"/>
<path d="M1038 343 c7 -3 16 -2 19 1 4 3 -2 6 -13 5 -11 0 -14 -3 -6 -6z"/>
<path d="M1128 1871 c-15 -18 -15 -20 5 -25 12 -3 35 -6 51 -6 l29 0 -23 25
c-28 30 -40 31 -62 6z m47 -11 c3 -5 -1 -10 -9 -10 -8 0 -18 5 -21 10 -3 6 1
10 9 10 8 0 18 -4 21 -10z"/>
<path d="M1446 1185 c-9 -26 -7 -32 5 -12 6 10 9 21 6 23 -2 3 -7 -2 -11 -11z"/>
<path d="M100 701 c-14 -26 -13 -31 6 -31 8 0 12 5 9 10 -4 6 -1 17 5 25 8 10
9 15 2 15 -6 0 -16 -9 -22 -19z"/>
<path d="M143 683 c9 -2 23 -2 30 0 6 3 -1 5 -18 5 -16 0 -22 -2 -12 -5z"/>
<path d="M218 658 c6 -6 18 -8 28 -6 14 3 12 5 -9 10 -19 3 -25 2 -19 -4z"/>
<path d="M1680 660 c8 -5 20 -10 25 -10 6 0 3 5 -5 10 -8 5 -19 10 -25 10 -5
0 -3 -5 5 -10z"/>
<path d="M1420 120 c-9 -6 -10 -10 -3 -10 6 0 15 5 18 10 8 12 4 12 -15 0z"/>
<path d="M880 85 c0 -9 5 -15 11 -13 6 2 11 8 11 13 0 5 -5 11 -11 13 -6 2
-11 -4 -11 -13z"/>
<path d="M980 71 c-8 -6 -18 -7 -24 -4 -5 3 -6 1 -2 -5 5 -9 13 -9 27 -2 10 6
19 13 19 15 0 7 -3 6 -20 -4z"/>
<path d="M938 33 c7 -3 16 -2 19 1 4 3 -2 6 -13 5 -11 0 -14 -3 -6 -6z"/>
<path d="M988 23 c7 -3 16 -2 19 1 4 3 -2 6 -13 5 -11 0 -14 -3 -6 -6z"/>
<path d="M1038 13 c7 -3 16 -2 19 1 4 3 -2 6 -13 5 -11 0 -14 -3 -6 -6z"/>
</g>
</svg>
